<?xml version="1.0" encoding="UTF-8" standalone="no"?>
<!-- Created with Inkscape (http://www.inkscape.org/) -->

<svg
   xmlns:dc="http://purl.org/dc/elements/1.1/"
   xmlns:cc="http://creativecommons.org/ns#"
   xmlns:rdf="http://www.w3.org/1999/02/22-rdf-syntax-ns#"
   xmlns:svg="http://www.w3.org/2000/svg"
   xmlns="http://www.w3.org/2000/svg"
   xmlns:sodipodi="http://sodipodi.sourceforge.net/DTD/sodipodi-0.dtd"
   xmlns:inkscape="http://www.inkscape.org/namespaces/inkscape"
   width="210mm"
   height="297mm"
   viewBox="0 0 210 297"
   version="1.1"
   id="svg1561"
   inkscape:version="0.92.3 (2405546, 2018-03-11)"
   sodipodi:docname="boat_strangest_label.svg">
  <defs
     id="defs1555" />
  <sodipodi:namedview
     id="base"
     pagecolor="#ffffff"
     bordercolor="#666666"
     borderopacity="1.0"
     inkscape:pageopacity="0.0"
     inkscape:pageshadow="2"
     inkscape:zoom="0.49497475"
     inkscape:cx="628.57654"
     inkscape:cy="593.20366"
     inkscape:document-units="mm"
     inkscape:current-layer="layer1"
     showgrid="false"
     inkscape:window-width="1916"
     inkscape:window-height="1041"
     inkscape:window-x="0"
     inkscape:window-y="290"
     inkscape:window-maximized="0"
     inkscape:snap-global="true">
    <inkscape:grid
       type="xygrid"
       id="grid3716" />
  </sodipodi:namedview>
  <metadata
     id="metadata1558">
    <rdf:RDF>
      <cc:Work
         rdf:about="">
        <dc:format>image/svg+xml</dc:format>
        <dc:type
           rdf:resource="http://purl.org/dc/dcmitype/StillImage" />
        <dc:title></dc:title>
      </cc:Work>
    </rdf:RDF>
  </metadata>
  <g
     inkscape:label="Layer 1"
     inkscape:groupmode="layer"
     id="layer1">
    <path
       style="fill:#000000;stroke-width:0.07806223"
       d="m 14.850451,195.28609 c 0.421301,-4.16105 1.539635,-8.84652 5.552348,-11.01095 6.074628,-4.51016 13.767578,-5.82856 20.982728,-7.53819 6.044077,-1.26667 12.26521,-2.06951 18.314107,-2.74133 3.837245,-0.51142 7.71008,-1.17717 11.441417,-2.21404 0.01504,-3.24448 1.254787,-7.76205 -3.466974,-7.48619 -2.454579,-0.69941 -4.843314,-2.17727 -6.268646,-4.32321 -0.824771,-3.96716 0.884651,-8.17079 0.981888,-12.23803 1.536473,-12.76362 2.953533,-25.54642 4.340563,-38.336 0.962509,-10.139957 2.598989,-20.181607 3.638701,-30.307688 1.231499,-10.275311 3.433427,-20.383382 4.872927,-30.639429 0.842696,-8.150014 1.828108,-16.311893 1.880339,-24.485497 1.37771,-4.075184 5.687612,-5.20941 9.569214,-5.417396 7.744165,-1.465807 15.619117,0.109038 23.407097,0.155716 8.95634,0.661196 17.9509,1.37293 26.93075,0.630054 4.11251,-1.382649 1.35568,4.948393 1.36681,7.493937 -1.95762,10.451423 -2.0598,21.114129 -3.83221,31.576176 -0.89486,7.138482 -1.40155,14.305096 -1.74488,21.492506 3.54326,1.584894 9.33397,-0.125529 13.92975,-0.845121 3.79235,-0.211229 7.4803,-0.936458 11.15275,-1.678267 1.83132,-2.790849 -0.35525,-6.143662 1.36882,-8.184571 3.28318,-2.50044 6.53827,-0.799362 10.21069,0.199059 3.75342,1.845707 9.49406,4.943102 11.92378,5.397359 1.90644,1.185329 0.63717,6.177228 0.43605,9.106325 0.0239,4.42712 -0.65719,13.00435 -0.78575,17.442407 -0.51349,3.64418 -0.0424,3.49519 -2.42582,4.02434 -4.25079,0.79706 -8.16173,1.07646 -12.30084,0.14822 -3.42379,-1.17306 -6.27023,-2.44621 -7.84039,-6.403817 0.22758,-4.8404 -1.63687,-3.67228 -8.09762,-2.92713 -5.89878,1.34168 -12.16906,2.12182 -18.15143,3.04857 -0.81335,4.049917 0.23121,8.579637 0.13203,13.257027 0.30006,11.55072 1.56097,23.04128 2.24275,34.60616 -0.46753,3.31002 2.72492,8.82498 -1.90644,10.02657 -4.27803,2.39111 -8.313,5.33718 -13.22835,6.3317 -5.63872,1.58829 -11.28737,3.18203 -17.1867,3.44357 -7.507744,0.64813 -15.114439,1.101 -22.604982,0.064 -2.323764,2.01217 -0.731107,6.15037 2.968349,4.46769 5.163031,-0.0614 10.344176,-0.63815 15.499337,-0.21224 11.700136,0.58824 23.520026,0.8978 35.013106,3.47098 12.28503,1.99269 24.39225,4.93286 36.39105,8.14254 3.66691,1.27946 8.74005,3.39673 7.73831,8.24475 0.26277,4.31196 -3.41218,6.77002 -6.36143,9.1375 -3.70998,2.86762 -7.89249,5.14204 -12.12668,7.0985 -2.81724,1.24183 -5.58589,2.54795 -9.93278,3.63692 -9.61923,1.87731 -19.60073,1.84076 -29.41996,2.25138 -3.96769,-0.8501 -6.65181,1.19734 -8.85613,4.30912 -4.71109,6.25281 -8.31206,13.92211 -7.3242,21.96937 0.92924,5.52982 2.29821,11.49487 6.66611,15.40428 2.54575,2.68848 1.98411,7.40474 -1.03432,9.4714 -4.02823,4.2161 -10.237204,4.56401 -15.69408,4.90036 -5.949603,0.1526 -11.989946,0.53616 -17.814135,-0.83218 -3.130831,-0.26611 -6.691757,-2.19255 -7.227336,-5.57647 -1.290312,-7.13569 0.641833,-14.45822 -0.383929,-21.64895 -0.860631,-8.54099 -1.187323,-17.22335 -3.409788,-25.52743 -0.361201,-4.73164 -5.26142,-4.73814 -8.962886,-5.10498 -6.550191,-1.05142 -13.19204,-1.94592 -19.743516,-2.53502 -3.654647,0.39293 -7.011162,-1.21853 -10.281096,-2.61927 -3.354528,-0.90267 -6.292158,-2.90861 -8.967476,-5.04091 -0.780805,-1.57186 -1.411976,-3.31055 -1.570957,-5.07414 z m 1.51825,1.32706 c 0.227976,3.71437 4.136664,4.82457 6.740198,6.64433 4.012257,0.9421 7.46635,3.6046 11.735417,3.45975 7.102326,0.66304 14.145742,1.33322 21.208969,2.47096 8.686845,1.08355 17.385704,1.97717 26.096339,2.76725 19.845126,0.0738 39.732856,0.1723 59.527586,-1.33096 3.83812,-0.39694 6.76703,-0.45887 11.15818,-2.30195 5.44722,-2.07034 10.71238,-4.77167 15.60236,-7.98232 2.61677,-2.45738 6.72225,-4.07194 7.51715,-7.85082 1.71743,-4.15456 -2.25777,-6.66462 -5.35508,-7.97583 -9.04675,-2.4708 -18.50566,-4.54765 -27.74226,-6.75972 -6.58543,-1.05906 -12.8154,-2.4652 -19.30572,-3.35956 -5.79207,-0.54167 -11.86542,-1.29018 -17.49525,-1.24341 -6.160488,-0.63233 -12.668546,-0.90039 -18.674593,-0.73533 -2.217933,1.14438 -7.542807,-1.00565 -8.609039,1.1374 1.062864,3.35758 0.919322,6.89872 -3.676042,7.09527 -4.057222,0.12507 -5.593169,-3.12785 -3.943364,-6.43091 -2.205687,-1.53093 -7.054105,1.19622 -10.257255,0.80083 -10.287422,1.38051 -20.634819,2.89881 -30.583374,5.98247 -4.152065,1.17229 -8.177634,3.20943 -11.330603,6.19669 -2.224521,2.45735 -3.072707,6.18321 -2.613619,9.41586 z m 46.563921,-38.30647 c -0.16271,3.19302 3.834391,3.98825 6.223048,4.98118 7.584767,1.97791 15.438293,3.28273 23.317652,2.6573 8.553748,-0.18333 17.203678,-0.89777 25.340138,-3.67939 5.73348,-1.23019 10.99088,-4.18612 15.52591,-7.77014 0.95084,-3.32536 -0.29963,-7.28978 -0.32388,-10.80867 -1.18069,-14.48101 -2.18059,-28.97423 -2.275,-43.5197 0.0902,-11.518227 0.85819,-22.992052 1.68491,-34.464482 0.96083,-8.443558 2.31967,-16.823304 2.88962,-25.302889 0.40416,-6.351801 1.83888,-12.573435 2.40661,-18.903761 -3.48897,0.49194 -7.45513,1.377234 -10.95907,2.560288 -4.36291,1.861243 -9.32377,1.740152 -13.54544,4.020356 -7.09818,2.083428 -14.586191,4.169195 -22.089968,3.172767 -4.399972,-0.897879 -8.840408,-2.267097 -12.577946,-4.828016 -0.892834,6.529705 -0.792961,13.399112 -1.901017,19.999869 -1.107803,11.227382 -3.826339,22.204959 -5.094617,33.410635 -1.345592,11.930036 -3.07402,23.816703 -4.16368,35.766093 -1.467241,13.16301 -2.763249,26.35668 -4.474162,39.48591 -0.111031,1.06353 -0.168302,2.16481 0.01691,3.22265 z m 1.250976,53.71279 c 2.814111,5.63271 3.01709,12.10073 3.83693,18.24775 0.5167,4.16479 0.736782,8.52941 1.144482,12.78842 0.542243,6.60902 -1.087289,13.3246 0.36376,19.83989 1.114138,3.51049 5.256777,4.29841 8.42508,4.63347 7.453861,0.79793 15.057704,0.92438 22.46082,-0.38643 3.13918,-0.61989 6.75627,-1.87524 8.23776,-4.8309 2.75927,-2.42044 0.79146,-6.58203 -1.56154,-8.54191 -3.65766,-4.49973 -4.79185,-10.57854 -5.22044,-16.2401 -0.32923,-7.96076 3.47922,-15.30089 8.19419,-21.4329 1.77382,-1.69346 3.91504,-3.82204 -0.26719,-2.79669 -13.329491,0.0714 -26.788385,0.9139 -39.98002,-1.18831 -1.427351,0.36229 -5.032313,-1.09806 -5.633832,-0.0923 z m 7.270859,-34.21931 c 1.433258,2.14819 5.284276,1.66579 6.449527,0.31214 -0.245619,-3.50259 0.198384,-7.57853 0.38771,-11.31012 -2.873685,-0.0877 -8.378306,-3.40209 -6.205418,2.16303 -0.0065,2.89564 0.178206,6.1885 -0.631819,8.83495 z M 78.986484,24.843482 c 2.485793,2.726244 6.479673,3.217067 9.798843,4.514193 8.118158,2.136044 16.580803,-0.254998 24.316383,-2.692248 3.57075,-1.744479 7.59176,-2.266783 11.42237,-3.09095 2.43715,-1.433019 7.70651,-2.006674 8.69817,-3.037992 -10.31797,0.884452 -20.62054,-0.737496 -30.93176,-0.890229 -7.244254,-0.597265 -14.902574,-1.030935 -21.78445,1.717179 -1.124537,0.729082 -1.897784,2.122855 -1.519556,3.480047 z m 53.038026,73.474581 c 6.26036,-0.99141 12.50065,-1.89412 18.81086,-3.2675 6.77121,-1.50136 7.47511,0.11195 8.00217,-5.65229 0.18417,-3.78631 0.0641,-4.77953 -0.0277,-7.43318 1.10749,-4.861616 -4.27357,-2.534203 -6.8331,-2.246482 -4.92879,0.314955 -9.77323,1.228248 -14.66622,1.894352 -6.89367,0.27686 -4.11736,2.0149 -5.05898,8.49483 0.17759,2.75342 -0.24452,5.46171 -0.227,8.21027 z m 12.8095,113.087887 c 0.30775,-0.097 -0.29719,-0.28012 0,0 z M 156.8556,77.958553 c 0.27807,-0.192528 -0.28541,-0.09441 0,0 z m 1.954,10.85065 c 0.57785,-0.55208 -0.35126,-0.16871 0,0 z m 0.38786,-13.036393 c 0.28004,-0.199444 -0.28004,-0.199444 0,0 z m -0.003,0.702561 c 0.13857,-0.312872 -0.25452,-0.304773 0,0 z m 0.28436,22.019692 c 0.55731,3.390747 4.06563,5.108157 7.10026,5.932057 4.21545,1.25507 9.10567,1.01516 13.11772,-0.85212 0.82673,-5.152287 0.58468,-10.448027 1.06832,-15.643317 -0.13349,-3.97699 1.10194,-9.310307 0.41879,-11.555819 -4.7726,0.993799 -10.47743,1.051901 -15.70404,-0.706211 -3.02505,-1.483413 -6.74493,-3.966297 -5.08349,2.384022 -0.46469,6.548278 -0.21562,13.253008 -1.08795,19.803378 l 0.17048,0.63799 z m 0.43272,-27.177817 c 2.8462,2.564145 6.56659,3.637787 10.54286,4.520772 8.39131,0.771812 11.70809,0.149263 5.25268,-2.258066 -4.58684,-2.559101 -9.60088,-5.403253 -15.07031,-4.222866 -0.37555,0.35253 -1.49789,1.520553 -0.72523,1.96016 z"
       id="path2142"
       inkscape:connector-curvature="0"
       sodipodi:nodetypes="ccccccccccccccccccccccccccccccccccccccccccccccccccccccccccccccccccccccccccccccccccccccccccccccccccccccccccccccccccccccccccccccccccccccccccccccccccccccccccccccccc" />
    <flowRoot
       xml:space="preserve"
       id="flowRoot928"
       style="font-style:normal;font-variant:normal;font-weight:normal;font-stretch:normal;font-size:40px;line-height:1.25;font-family:cmr10;-inkscape-font-specification:cmr10;text-align:center;text-anchor:middle;opacity:1;fill:#4b4b4b;fill-opacity:0.6627451;stroke:none;stroke-width:1.51181102;stroke-linecap:round;stroke-linejoin:round;stroke-miterlimit:4;stroke-dasharray:none;stroke-dashoffset:0;stroke-opacity:0.43529412"
       transform="matrix(0.26458333,0,0,0.26458333,-75.180273,58.078886)"><flowRegion
         id="flowRegion930"><rect
           id="rect932"
           width="160"
           height="130"
           x="690"
           y="762.51971" /></flowRegion><flowPara
         id="flowPara934">Bulb</flowPara></flowRoot>    <flowRoot
       xml:space="preserve"
       id="flowRoot885"
       style="font-style:normal;font-weight:normal;font-size:40px;line-height:1.25;font-family:sans-serif;letter-spacing:0px;word-spacing:0px;fill:#4b4b4b;fill-opacity:0.6627451;stroke:none"
       transform="matrix(0.26458333,0,0,0.26458333,-9.4242933,23.453764)"><flowRegion
         id="flowRegion887"
         style="fill:#4b4b4b;fill-opacity:0.6627451"><rect
           id="rect889"
           width="110"
           height="80"
           x="110"
           y="492.51968"
           style="fill:#4b4b4b;fill-opacity:0.6627451" /></flowRegion><flowPara
         id="flowPara891"
         style="font-style:normal;font-variant:normal;font-weight:normal;font-stretch:normal;font-family:cmr10;-inkscape-font-specification:cmr10;fill:#4b4b4b;fill-opacity:0.6627451">Mast</flowPara></flowRoot>    <text
       xml:space="preserve"
       style="font-style:normal;font-variant:normal;font-weight:normal;font-stretch:normal;font-size:10.58333302px;line-height:1.25;font-family:cmr10;-inkscape-font-specification:cmr10;letter-spacing:0px;word-spacing:0px;fill:#4c4c4c;fill-opacity:0.66666667;stroke:none;stroke-width:0.26458332"
       x="36.337433"
       y="89.307175"
       id="text881"><tspan
         sodipodi:role="line"
         id="tspan879"
         x="36.337433"
         y="89.307175"
         style="font-style:normal;font-variant:normal;font-weight:normal;font-stretch:normal;font-family:cmr10;-inkscape-font-specification:cmr10;fill:#4c4c4c;fill-opacity:0.66666667;stroke-width:0.26458332">Sail</tspan></text>
    <flowRoot
       xml:space="preserve"
       id="flowRoot944"
       style="font-style:normal;font-variant:normal;font-weight:normal;font-stretch:normal;font-size:40px;line-height:1.25;font-family:cmr10;-inkscape-font-specification:cmr10;text-align:start;text-anchor:start;opacity:1;fill:#4b4b4b;fill-opacity:0.6627451;stroke:none;stroke-width:1.51181102;stroke-linecap:round;stroke-linejoin:round;stroke-miterlimit:4;stroke-dasharray:none;stroke-dashoffset:0;stroke-opacity:0.43529412"
       transform="matrix(0.26458333,0,0,0.26458333,-16.746574,-103.48604)"><flowRegion
         id="flowRegion946"><rect
           id="rect948"
           width="180"
           height="130"
           x="700"
           y="592.51971" /></flowRegion><flowPara
         id="flowPara950">Rudder</flowPara></flowRoot>    <flowRoot
       xml:space="preserve"
       id="flowRoot920"
       style="font-style:normal;font-variant:normal;font-weight:normal;font-stretch:normal;font-size:40px;line-height:1.25;font-family:cmr10;-inkscape-font-specification:cmr10;text-align:center;text-anchor:middle;opacity:1;fill:#4b4b4b;fill-opacity:0.6627451;stroke:none;stroke-width:1.51181102;stroke-linecap:round;stroke-linejoin:round;stroke-miterlimit:4;stroke-dasharray:none;stroke-dashoffset:0;stroke-opacity:0.43529412"
       transform="matrix(0.26458333,0,0,0.26458333,-111.27581,-26.699808)"><flowRegion
         id="flowRegion922"><rect
           id="rect924"
           width="200"
           height="110"
           x="480"
           y="962.51971" /></flowRegion><flowPara
         id="flowPara926">Keel</flowPara></flowRoot>    <flowRoot
       xml:space="preserve"
       id="flowRoot912"
       style="font-style:normal;font-variant:normal;font-weight:normal;font-stretch:normal;font-size:40px;line-height:1.25;font-family:cmr10;-inkscape-font-specification:cmr10;text-align:center;text-anchor:middle;opacity:1;fill:#4b4b4b;fill-opacity:0.6627451;stroke:none;stroke-width:1.51181102;stroke-linecap:round;stroke-linejoin:round;stroke-miterlimit:4;stroke-dasharray:none;stroke-dashoffset:0;stroke-opacity:0.43529412"
       transform="matrix(0.26458333,0,0,0.26458333,107.06285,-63.656623)"><flowRegion
         id="flowRegion914"
         style="font-size:40px;stroke:none"><rect
           id="rect916"
           width="200"
           height="180"
           x="90"
           y="842.51971"
           style="font-size:40px;stroke:none" /></flowRegion><flowPara
         id="flowPara918"
         style="font-size:40px;stroke:none">Hull</flowPara></flowRoot>    <path
       style="opacity:1;fill:none;fill-opacity:0.6627451;stroke:#4c4c4c;stroke-width:0.40000001;stroke-linecap:round;stroke-linejoin:round;stroke-miterlimit:4;stroke-dasharray:none;stroke-dashoffset:0;stroke-opacity:0.43529412"
       d="M 79.374999,106.5 58.208333,90.625 H 47.624999"
       id="path3720"
       inkscape:connector-curvature="0" />
    <path
       style="opacity:1;fill:none;fill-opacity:0.6627451;stroke:#4c4c4c;stroke-width:0.40000001;stroke-linecap:round;stroke-linejoin:round;stroke-miterlimit:4;stroke-dasharray:none;stroke-dashoffset:0;stroke-opacity:0.43529412"
       d="M 74.083332,170 47.624999,164.70833 H 37.041666"
       id="path3722"
       inkscape:connector-curvature="0" />
    <path
       style="opacity:1;fill:none;fill-opacity:0.6627451;stroke:#4c4c4c;stroke-width:0.40000001;stroke-linecap:round;stroke-linejoin:round;stroke-miterlimit:4;stroke-dasharray:none;stroke-dashoffset:0;stroke-opacity:0.43529412"
       d="m 162.71875,70.78125 3.96875,-6.614583 h 6.61458"
       id="path3726"
       inkscape:connector-curvature="0" />
    <path
       style="opacity:1;fill:none;fill-opacity:0.6627451;stroke:#4c4c4c;stroke-width:0.40000001;stroke-linecap:round;stroke-linejoin:round;stroke-miterlimit:4;stroke-dasharray:none;stroke-dashoffset:0;stroke-opacity:0.43529412"
       d="M 134.9375,183.22917 145.52083,170 h 7.9375"
       id="path3728"
       inkscape:connector-curvature="0" />
    <path
       style="opacity:1;fill:none;fill-opacity:0.6627451;stroke:#4c4c4c;stroke-width:0.40000001;stroke-linecap:round;stroke-linejoin:round;stroke-miterlimit:4;stroke-dasharray:none;stroke-dashoffset:0;stroke-opacity:0.43529412"
       d="m 74.083332,233.5 -18.520833,5.29166 h -7.9375"
       id="path3730"
       inkscape:connector-curvature="0" />
    <path
       style="opacity:1;fill:none;fill-opacity:0.6627451;stroke:#4c4c4c;stroke-width:0.40000001;stroke-linecap:round;stroke-linejoin:round;stroke-miterlimit:4;stroke-dasharray:none;stroke-dashoffset:0;stroke-opacity:0.43529412"
       d="m 103.1875,262.60416 10.58333,7.93751 h 7.9375"
       id="path3732"
       inkscape:connector-curvature="0" />
  </g>
</svg>
