<?xml version="1.0" encoding="UTF-8" standalone="no"?>
<!-- Created with Inkscape (http://www.inkscape.org/) -->

<svg
   xmlns:dc="http://purl.org/dc/elements/1.1/"
   xmlns:cc="http://creativecommons.org/ns#"
   xmlns:rdf="http://www.w3.org/1999/02/22-rdf-syntax-ns#"
   xmlns:svg="http://www.w3.org/2000/svg"
   xmlns="http://www.w3.org/2000/svg"
   xmlns:sodipodi="http://sodipodi.sourceforge.net/DTD/sodipodi-0.dtd"
   xmlns:inkscape="http://www.inkscape.org/namespaces/inkscape"
   width="210mm"
   height="297mm"
   viewBox="0 0 210 297"
   version="1.1"
   id="svg1561"
   inkscape:version="0.92.3 (2405546, 2018-03-11)"
   sodipodi:docname="boat_strangest.svg">
  <defs
     id="defs1555" />
  <sodipodi:namedview
     id="base"
     pagecolor="#ffffff"
     bordercolor="#666666"
     borderopacity="1.0"
     inkscape:pageopacity="0.0"
     inkscape:pageshadow="2"
     inkscape:zoom="0.7"
     inkscape:cx="3.173173"
     inkscape:cy="837.49765"
     inkscape:document-units="mm"
     inkscape:current-layer="layer1"
     showgrid="false"
     inkscape:window-width="1916"
     inkscape:window-height="1041"
     inkscape:window-x="0"
     inkscape:window-y="290"
     inkscape:window-maximized="0"
     inkscape:snap-global="false" />
  <metadata
     id="metadata1558">
    <rdf:RDF>
      <cc:Work
         rdf:about="">
        <dc:format>image/svg+xml</dc:format>
        <dc:type
           rdf:resource="http://purl.org/dc/dcmitype/StillImage" />
        <dc:title></dc:title>
      </cc:Work>
    </rdf:RDF>
  </metadata>
  <g
     inkscape:label="Layer 1"
     inkscape:groupmode="layer"
     id="layer1">
    <path
       style="fill:#000000;stroke-width:0.08578084"
       d="m 13.781373,206.66546 c 0.462958,-4.57249 1.69187,-9.72125 6.101351,-12.09969 6.675273,-4.95611 15.128884,-6.40487 23.057451,-8.28355 6.641702,-1.39191 13.477966,-2.27414 20.124964,-3.01238 4.216663,-0.56199 8.472435,-1.29357 12.572717,-2.43296 0.01653,-3.56529 1.378858,-8.52955 -3.80978,-8.22641 -2.697282,-0.76857 -5.322209,-2.39255 -6.888475,-4.75068 -0.906322,-4.35942 0.972123,-8.9787 1.078975,-13.4481 1.688396,-14.02565 3.245571,-28.07239 4.769747,-42.12657 1.05768,-11.14258 2.855972,-22.177122 3.998488,-33.304446 1.353267,-11.29131 3.772916,-22.398843 5.35475,-33.668985 0.92602,-8.955868 2.008868,-17.924775 2.066263,-26.906566 1.513935,-4.478128 6.24999,-5.724504 10.515396,-5.953055 8.50989,-1.610743 17.1635,0.11982 25.72153,0.171113 9.84193,0.726573 19.72585,1.508682 29.5936,0.692352 4.51915,-1.519362 1.48973,5.437679 1.50196,8.23492 -2.15118,11.484835 -2.26347,23.201845 -4.21113,34.698355 -0.98334,7.844318 -1.54013,15.719551 -1.91741,23.617635 3.89361,1.741609 10.25689,-0.137941 15.30709,-0.928685 4.16733,-0.232115 8.21994,-1.029052 12.25551,-1.84421 2.0124,-3.066801 -0.39038,-6.751133 1.50417,-8.993842 3.60781,-2.747678 7.18475,-0.878401 11.2203,0.218741 4.12454,2.028206 10.4328,5.431865 13.10277,5.931038 2.09494,1.302531 0.70017,6.788017 0.47917,10.006732 0.0262,4.864868 -0.72218,14.290197 -0.86345,19.167083 -0.56426,4.00451 -0.0466,3.84078 -2.66568,4.42225 -4.67109,0.87588 -8.96874,1.1829 -13.51712,0.16288 -3.76232,-1.28905 -6.89021,-2.68809 -8.61562,-7.03701 0.25008,-5.319013 -1.79872,-4.03539 -8.8983,-3.216561 -6.48204,1.474336 -13.37231,2.331621 -19.9462,3.350001 -0.89377,4.45037 0.25407,9.42798 0.14509,14.56786 0.32973,12.69282 1.71531,25.31954 2.4645,38.02793 -0.51375,3.63731 2.99436,9.69758 -2.09494,11.01798 -4.70103,2.62753 -9.13497,5.8649 -14.53634,6.95776 -6.19626,1.74534 -12.40344,3.49666 -18.88608,3.78406 -8.25009,0.71222 -16.608917,1.20987 -24.840108,0.0703 -2.553532,2.21113 -0.803397,6.7585 3.261852,4.90944 5.67354,-0.0675 11.366985,-0.70125 17.031876,-0.23322 12.85702,0.6464 25.84563,0.98657 38.47512,3.81418 13.49974,2.18972 26.8041,5.42061 39.98931,8.94766 4.02949,1.40596 9.60425,3.73259 8.50346,9.05997 0.28875,4.73831 -3.74957,7.43942 -6.99044,10.04099 -4.07681,3.15117 -8.67288,5.65047 -13.32573,7.80039 -3.09581,1.36461 -6.13821,2.79988 -10.91491,3.99652 -10.57036,2.06294 -21.53881,2.02277 -32.32894,2.474 -4.36001,-0.93416 -7.30953,1.31573 -9.73181,4.73519 -5.17691,6.87108 -9.13393,15.2987 -8.0484,24.14165 1.02113,6.0766 2.52546,12.63146 7.32524,16.92742 2.79747,2.95431 2.1803,8.1369 -1.13659,10.40791 -4.42653,4.63298 -11.24943,5.01529 -17.245869,5.3849 -6.537886,0.16769 -13.175484,0.58917 -19.575555,-0.91447 -3.440401,-0.29242 -7.353423,-2.40934 -7.941958,-6.12786 -1.417896,-7.84124 0.705296,-15.88781 -0.421892,-23.78954 -0.945728,-9.38551 -1.304722,-18.92636 -3.746939,-28.05153 -0.396916,-5.19949 -5.781657,-5.20663 -9.849116,-5.60974 -7.197858,-1.15539 -14.496438,-2.13833 -21.695708,-2.78568 -4.016011,0.43178 -7.70441,-1.33902 -11.297667,-2.87826 -3.686216,-0.99192 -6.914312,-3.19621 -9.854159,-5.53934 -0.85801,-1.72728 -1.551589,-3.63789 -1.72629,-5.57586 z m 1.668371,1.45828 c 0.250518,4.08163 4.545688,5.30161 7.406653,7.3013 4.40898,1.03525 8.204605,3.96102 12.895788,3.80184 7.804587,0.7286 15.54444,1.46505 23.306062,2.71529 9.54578,1.19068 19.104762,2.17266 28.676684,3.04087 21.807369,0.0811 43.661549,0.18933 65.413529,-1.46257 4.21763,-0.43619 7.43614,-0.50424 12.26148,-2.52956 5.98583,-2.27505 11.77159,-5.24348 17.14508,-8.77159 2.87551,-2.70036 7.38693,-4.47457 8.26043,-8.62709 1.88725,-4.56536 -2.48101,-7.3236 -5.88458,-8.76447 -9.94127,-2.7151 -20.33545,-4.99731 -30.48535,-7.4281 -7.23658,-1.16378 -14.08255,-2.70895 -21.21462,-3.69175 -6.36478,-0.59522 -13.03864,-1.41775 -19.22514,-1.36635 -6.76962,-0.69485 -13.92118,-0.98942 -20.521091,-0.80804 -2.437237,1.25754 -8.288622,-1.10508 -9.46028,1.24987 1.167957,3.68956 1.010222,7.58084 -4.039521,7.79683 -4.458391,0.13744 -6.146208,-3.43713 -4.333274,-7.06679 -2.423781,-1.6823 -7.751599,1.3145 -11.271469,0.88002 -11.304618,1.51701 -22.675142,3.18544 -33.607387,6.574 -4.562611,1.2882 -8.986219,3.52677 -12.450946,6.80941 -2.444477,2.70032 -3.37653,6.79459 -2.872048,10.34688 z m 51.168053,-42.09413 c -0.178798,3.50874 4.213527,4.3826 6.838369,5.47371 8.334731,2.17348 16.964795,3.60732 25.623247,2.92005 9.399527,-0.20146 18.904737,-0.98654 27.845707,-4.0432 6.30039,-1.35183 12.07763,-4.60004 17.06108,-8.53844 1.04485,-3.65416 -0.32926,-8.01057 -0.35591,-11.8774 -1.29743,-15.91286 -2.3962,-31.83914 -2.49994,-47.82283 0.0991,-12.657126 0.94304,-25.265456 1.85151,-37.872253 1.05583,-9.278438 2.54903,-18.486753 3.17534,-27.80478 0.44412,-6.979852 2.0207,-13.816667 2.64457,-20.772921 -3.83395,0.540582 -8.19228,1.513412 -12.04268,2.813444 -4.79431,2.045278 -10.24568,1.912214 -14.88478,4.417879 -7.80004,2.289432 -16.02844,4.581435 -24.274173,3.486483 -4.835032,-0.986659 -9.714527,-2.491263 -13.821625,-5.305399 -0.981115,7.175347 -0.871367,14.723985 -2.088985,21.977409 -1.21734,12.33752 -4.204678,24.400534 -5.598361,36.714201 -1.47864,13.109648 -3.377971,26.171647 -4.575375,39.302567 -1.612318,14.46453 -3.036472,28.96276 -4.916556,43.39018 -0.12201,1.16869 -0.184943,2.37886 0.01858,3.5413 z m 1.37467,59.02379 c 3.092363,6.18965 3.315412,13.29722 4.216316,20.05204 0.56779,4.57659 0.809634,9.37278 1.257646,14.05291 0.595859,7.2625 -1.194797,14.6421 0.399728,21.80161 1.224301,3.8576 5.776555,4.72343 9.258132,5.09162 8.190881,0.87683 16.546575,1.01578 24.681691,-0.42464 3.44958,-0.68118 7.42432,-2.06066 9.05229,-5.30857 3.0321,-2.65977 0.86972,-7.23284 -1.71594,-9.38651 -4.01932,-4.94466 -5.26566,-11.62452 -5.73662,-17.84589 -0.36179,-8.7479 3.82323,-16.8138 9.00441,-23.55213 1.94921,-1.86091 4.30215,-4.19996 -0.29361,-3.07322 -14.64748,0.0785 -29.437158,1.00426 -43.933151,-1.30581 -1.568484,0.39811 -5.529897,-1.20663 -6.190892,-0.10141 z m 7.989784,-37.60284 c 1.574975,2.3606 5.806773,1.8305 7.087242,0.343 -0.269906,-3.84891 0.217999,-8.32787 0.426045,-12.42844 -3.157828,-0.0964 -9.206733,-3.73848 -6.818995,2.37691 -0.0071,3.18196 0.195827,6.80041 -0.694292,9.70853 z M 84.259028,19.369879 c 2.731582,2.995809 7.120368,3.535163 10.767729,4.960546 8.920863,2.347251 18.220273,-0.280212 26.720733,-2.958452 3.92381,-1.916968 8.34241,-2.490917 12.55178,-3.396575 2.67813,-1.574713 8.46851,-2.20509 9.55823,-3.338382 -11.33819,0.971905 -22.65945,-0.810418 -33.99022,-0.978253 -7.96055,-0.656321 -16.376106,-1.132871 -23.938446,1.88697 -1.235729,0.801172 -2.085433,2.332758 -1.669806,3.824146 z m 58.282302,80.739581 c 6.87937,-1.089445 13.73668,-2.081411 20.67083,-3.590587 7.44073,-1.649807 8.21423,0.123019 8.79341,-6.211176 0.20238,-4.160688 0.0704,-5.25212 -0.0305,-8.168153 1.217,-5.342324 -4.69613,-2.784781 -7.50874,-2.468611 -5.41613,0.346097 -10.73958,1.349694 -16.11638,2.081661 -7.5753,0.304233 -4.52447,2.214126 -5.5592,9.334774 0.19515,3.025679 -0.2687,6.00176 -0.24944,9.022092 z m 14.07607,124.26975 c 0.33818,-0.10653 -0.32657,-0.30781 0,0 z M 169.82766,77.736844 c 0.30556,-0.211564 -0.31363,-0.103744 0,0 z m 2.1472,11.923538 c 0.63499,-0.606673 -0.38599,-0.185395 0,0 z m 0.42622,-14.325402 c 0.30773,-0.219165 -0.30773,-0.219165 0,0 z m -0.003,0.772029 c 0.15227,-0.343808 -0.27969,-0.334909 0,0 z m 0.31247,24.196951 c 0.61242,3.72602 4.46763,5.61324 7.80232,6.5186 4.63226,1.37917 10.00602,1.11554 14.41477,-0.93637 0.90847,-5.66174 0.64249,-11.481108 1.17395,-17.190091 -0.14669,-4.370225 1.2109,-10.230893 0.4602,-12.698436 -5.2445,1.092063 -11.51341,1.15591 -17.25682,-0.77604 -3.32416,-1.630089 -7.41185,-4.358475 -5.58613,2.619749 -0.51064,7.19576 -0.23694,14.563439 -1.19552,21.761493 l 0.18733,0.701075 z m 0.47551,-29.8651 c 3.12763,2.817682 7.21588,3.997483 11.58531,4.967776 9.22103,0.848127 12.86576,0.164022 5.77206,-2.481339 -5.04038,-2.812138 -10.5502,-5.937514 -16.56043,-4.640413 -0.41269,0.387388 -1.646,1.670902 -0.79694,2.153976 z"
       id="path2142"
       inkscape:connector-curvature="0"
       sodipodi:nodetypes="ccccccccccccccccccccccccccccccccccccccccccccccccccccccccccccccccccccccccccccccccccccccccccccccccccccccccccccccccccccccccccccccccccccccccccccccccccccccccccccccccc" />
  </g>
</svg>
