<?xml version="1.0" encoding="UTF-8" standalone="no"?>
<!-- Created with Inkscape (http://www.inkscape.org/) -->

<svg
   xmlns:dc="http://purl.org/dc/elements/1.1/"
   xmlns:cc="http://creativecommons.org/ns#"
   xmlns:rdf="http://www.w3.org/1999/02/22-rdf-syntax-ns#"
   xmlns:svg="http://www.w3.org/2000/svg"
   xmlns="http://www.w3.org/2000/svg"
   xmlns:sodipodi="http://sodipodi.sourceforge.net/DTD/sodipodi-0.dtd"
   xmlns:inkscape="http://www.inkscape.org/namespaces/inkscape"
   width="210mm"
   height="297mm"
   viewBox="0 0 210 297"
   version="1.1"
   id="svg976"
   inkscape:version="0.92.3 (2405546, 2018-03-11)"
   sodipodi:docname="boat_stranger_label.svg">
  <defs
     id="defs970" />
  <sodipodi:namedview
     id="base"
     pagecolor="#ffffff"
     bordercolor="#666666"
     borderopacity="1.0"
     inkscape:pageopacity="0.0"
     inkscape:pageshadow="2"
     inkscape:zoom="0.7"
     inkscape:cx="387.99262"
     inkscape:cy="439.24825"
     inkscape:document-units="mm"
     inkscape:current-layer="layer1"
     showgrid="true"
     inkscape:window-width="1920"
     inkscape:window-height="1080"
     inkscape:window-x="0"
     inkscape:window-y="272"
     inkscape:window-maximized="0"
     inkscape:snap-global="true">
    <inkscape:grid
       type="xygrid"
       id="grid3586" />
  </sodipodi:namedview>
  <metadata
     id="metadata973">
    <rdf:RDF>
      <cc:Work
         rdf:about="">
        <dc:format>image/svg+xml</dc:format>
        <dc:type
           rdf:resource="http://purl.org/dc/dcmitype/StillImage" />
        <dc:title></dc:title>
      </cc:Work>
    </rdf:RDF>
  </metadata>
  <g
     inkscape:label="Layer 1"
     inkscape:groupmode="layer"
     id="layer1">
    <path
       style="fill:#000000;stroke-width:0.07299222"
       d="m 5.8927878,183.45596 c 1.8483365,-3.05733 3.4924839,-6.34833 5.3871612,-9.37784 2.907388,-5.28801 6.602626,-10.29021 10.306924,-15.07934 4.65849,-4.87858 7.545214,-10.91651 11.052132,-16.54938 1.956121,-3.26722 3.873556,-6.64838 6.187711,-9.67844 2.846147,-4.71879 5.550514,-9.4772 8.253858,-14.27386 2.51039,-0.76367 3.063747,-4.29048 4.688583,-6.29548 2.354466,-3.39289 4.947157,-6.7259 7.353968,-10.10837 2.444037,-4.208154 5.016636,-8.333036 7.622334,-12.432604 2.933573,-4.018764 4.689115,-8.718697 7.673042,-12.710492 2.157136,-3.525857 3.952136,-7.370602 6.821275,-10.291901 2.249292,-3.469297 3.921107,-7.31031 6.491956,-10.602126 2.988231,-6.324438 7.601102,-11.721559 10.710559,-17.974334 1.687329,0.7881 1.289279,-4.62763 2.645179,-1.509799 1.209,1.59763 2.62512,3.416832 3.61903,5.233173 3.34497,4.955167 4.42567,11.073432 7.76245,16.030743 1.74559,2.355636 2.01395,5.258979 3.66106,7.58514 4.04554,6.566328 6.72094,13.798118 10.58386,20.457749 2.88333,6.251258 6.45029,12.113567 9.57873,18.224491 1.25445,2.4444 3.36193,4.56918 4.04251,7.23021 -1.10324,0.54684 1.98012,4.20091 2.54657,5.81219 2.82139,5.05563 5.62194,10.20713 8.45465,15.3155 2.0547,3.96319 4.36177,7.85754 6.4468,11.8099 1.55592,1.72495 2.20587,4.18285 2.84194,5.89678 1.30192,2.82505 2.43619,5.80701 3.95078,8.50999 1.29666,2.11769 2.1469,4.78347 3.08671,7.25199 1.44424,2.32725 0.77953,6.18133 4.77616,5.50092 3.12312,0.10014 6.45504,0.87379 9.4208,0.78201 2.5127,-1.57987 1.03473,4.24276 1.97595,5.76875 -0.0297,3.73163 3.27317,6.80011 1.71016,10.6384 -0.84435,3.95028 -4.91391,2.62632 -7.71799,3.78562 -2.099,0.84248 -2.83784,3.78917 -3.63213,5.84002 -1.49611,3.14724 -1.56201,6.83391 -3.61329,9.72576 -1.7093,2.45648 -2.76581,5.47489 -4.96347,7.737 -2.31074,3.68562 -5.83427,6.24351 -9.46811,8.48011 -2.41658,0.91694 -2.95715,3.51852 -4.58797,5.09645 -2.19217,2.54083 -4.17905,5.52752 -6.42526,8.1769 -1.48557,2.25532 -4.46293,3.00172 -6.84932,4.12228 -3.07629,0.99522 -6.25513,0.32088 -9.42871,0.75569 -3.22928,0.38643 -6.29574,-0.37819 -9.47935,0.14287 -3.80366,-0.29131 -7.74774,-0.80788 -11.60158,-1.01305 -3.65133,0.20673 -7.28581,-0.34523 -10.979405,-0.35011 -3.238175,0.28252 -6.423994,-0.60306 -9.348702,-2.01691 -4.063192,-2.0388 -7.479442,-5.22193 -10.298171,-8.79656 -2.739562,-3.48024 -3.410964,-7.93161 -5.612417,-11.67776 -1.5953,-3.60948 -3.419225,-7.13324 -5.802825,-10.24337 -1.970466,-1.9034 -3.920043,-3.82378 -6.091475,-5.49127 -2.101164,-0.89957 -3.176142,-2.15401 -4.279996,-2.15616 -7.060714,-0.75067 -14.109591,-2.31382 -21.023273,-4.04458 -4.137185,-0.81624 -8.099483,-2.27818 -11.824749,-4.20675 -2.902981,-1.65772 -6.289565,-2.31162 -9.066966,-4.11312 -2.013327,-1.67408 -5.1192873,-2.55767 -6.3215528,-4.63465 -0.3796479,0.0709 -1.4839125,0.78842 -1.2361304,-0.28238 z m 2.6021279,-0.52149 c 4.1133293,-0.35797 8.0494273,-1.05113 12.0518193,-1.92887 1.659678,-0.996 9.571492,-1.50736 8.104729,-2.02597 -4.115882,0.46826 -8.257823,0.21291 -12.374769,-0.26418 -3.684609,-0.92854 -7.235079,-0.83999 -8.1699217,3.49336 -0.1628858,0.25924 -0.1564545,0.95554 0.3881424,0.72566 z m 3.7777163,-6.3149 c 7.285579,1.21534 14.732107,0.40834 22.004942,1.05615 3.17303,0.18758 6.072416,-1.44779 9.219157,-1.52146 3.066051,-0.70422 -4.350891,0.0884 -5.609765,0.20167 -8.121702,0.59135 -16.419121,0.58902 -24.397343,-1.35688 -0.652858,-1.77837 -3.293065,1.97064 -1.216991,1.62052 z m -0.649189,8.95476 c 2.555255,2.08714 5.595782,3.05733 8.542935,4.41079 5.113904,2.52861 10.414693,4.86748 16.077061,5.78688 3.965708,1.12347 8.008969,1.66088 12.029705,2.65988 4.919078,0.91539 10.052106,0.87762 14.774313,2.70676 5.229843,1.40919 10.447348,2.87453 15.893058,3.26212 5.966814,0.59246 11.94144,1.36751 17.927308,1.49234 5.685877,-0.42413 11.251797,0.64883 16.997527,0.20234 7.57717,-0.0274 15.1362,-1.25648 22.37406,-3.35423 0.30098,-0.41142 -2.06878,-1.60778 0.90233,-1.44926 3.31369,-1.27103 7.02577,-1.44938 10.52096,-2.26454 3.26087,-0.32273 6.13097,-1.32723 9.35134,-1.69378 3.76997,-0.79258 7.71581,-1.70684 11.30163,-3.23332 4.19759,-0.45901 7.8136,-2.8116 11.95971,-3.31733 2.85719,-0.49971 5.43406,-2.08659 4.35788,-5.49144 -2.32899,-2.54615 -6.06821,0.3603 -9.15673,0.26649 -6.61204,1.38638 -13.11674,2.43331 -19.74796,3.47155 -3.14308,0.89548 -6.45139,1.20079 -9.61695,2.14103 -6.4443,1.38702 -13.06286,1.59671 -19.54764,2.30297 -3.95882,-0.20329 -8.39097,0.73188 -12.52337,1.02019 -9.07535,0.59376 -18.150481,1.35477 -27.255793,0.79252 -4.547195,0.003 -9.135243,-0.53085 -13.656556,-0.61186 -1.894613,-0.47985 -4.369065,-0.44786 -6.267958,-0.61357 -4.183339,0.26011 -8.216156,-1.04426 -12.361085,-1.40787 -4.986027,-0.97131 -10.121118,-1.81098 -15.140163,-2.01721 -3.611584,-1.25587 -7.570005,-0.85484 -11.222359,-2.01482 -3.593853,-0.57126 -7.150408,-0.52286 -10.546139,-1.95978 -1.574208,-0.0292 -5.111414,-1.3601 -5.967114,-1.08701 z m 2.09852,-12.78672 c 4.075056,2.14456 9.369808,1.83102 13.982514,2.23321 10.668188,-0.0595 21.290761,-1.47698 31.957434,-1.89299 5.003331,-0.26488 9.784813,-1.73352 14.449799,-3.32734 1.05457,-2.79343 -0.281656,-7.17356 0.234009,-10.55165 0.167785,-7.12713 0.241536,-14.24948 0.283114,-21.36741 1.027314,-4.87815 1.160235,-9.8436 1.920442,-14.76374 1.374661,-10.05397 2.921927,-20.0596 5.211533,-29.947526 1.236717,-4.918538 2.138912,-9.943936 2.905969,-14.942681 0.257832,-3.240558 2.479159,-4.456492 2.66943,-7.876127 1.236872,-4.728807 3.034555,-9.364989 3.983725,-14.199928 0.682006,-2.230661 3.369909,-9.941526 0.210941,-4.366254 -1.550077,2.664998 -2.956359,5.446549 -4.772982,7.875685 -2.764571,4.187111 -4.225961,9.205536 -7.803932,12.829394 -2.712831,2.730809 -4.134009,6.534784 -6.400292,9.639101 -1.961383,4.62932 -5.337458,8.406842 -7.677305,12.831593 -2.618166,3.805149 -4.461772,8.018813 -7.483618,11.524933 -3.694763,4.54402 -6.247592,9.82756 -9.76169,14.50173 -1.870813,1.75345 -2.960105,4.74216 -4.711875,6.96897 -1.878325,3.33626 -3.622994,6.74275 -5.928831,9.81321 -1.370898,2.50264 -3.14193,5.17516 -4.63324,7.77589 -2.901666,4.23148 -5.018361,9.04264 -8.532911,12.82417 -3.593272,4.08937 -6.71984,8.59951 -9.589841,13.21468 -0.125096,0.4065 -0.678841,0.74504 -0.512393,1.20308 z m 22.967903,-16.22118 c 0.510546,-0.30031 -0.07971,0.43126 0,0 z m -21.885115,27.51514 c 4.24301,0.29905 8.402961,1.45251 12.540928,2.50033 3.694036,0.98566 7.547591,0.98993 11.158022,2.10555 3.855416,1.01411 7.712759,1.59298 11.641304,2.25744 6.499597,1.1696 13.012597,2.49475 19.637709,2.39575 10.534333,1.01182 21.101771,1.48127 31.683736,1.15187 6.51552,-0.80395 13.14173,-0.71303 19.63552,-1.73409 10.41754,-0.5737 20.9519,-1.05095 31.06501,-3.79008 5.90061,-1.2374 11.89505,-2.11232 17.85207,-3.16395 3.87243,-0.81952 7.8132,-1.29413 11.61367,-2.37571 2.93582,-0.91091 -0.0744,-4.79899 0.11841,-7.15027 0.32045,-4.27587 -4.50797,-3.3204 -7.37328,-3.74361 -2.4837,-0.8062 -5.38213,-0.67246 -3.02112,2.22337 0.46664,2.67417 1.56029,4.15511 2.39024,5.8398 -1.95172,0.76775 -4.94585,-1.41494 -7.23359,-1.8604 -3.30623,-1.0558 -6.78758,-1.03461 -10.15611,-1.86285 -2.67013,-0.84301 -7.58432,0.20415 -8.87045,-1.50238 -2.83376,-0.39181 -6.11892,-1.60973 -8.74258,-1.25175 -2.37372,0.52115 -5.11159,1.95298 -7.34423,3.67019 -2.63915,1.50037 -5.13509,3.17862 -7.97283,4.24884 -3.83018,2.38042 2.89415,2.82603 5.35548,2.19032 4.89131,-0.42064 9.82704,0.29244 14.66887,-0.60492 -1.40897,1.58541 -6.17156,1.70102 -8.87649,1.32118 -4.7642,0.0183 -9.46224,0.54418 -14.17943,0.80218 0.78113,1.24243 1.97416,3.00583 -0.66553,1.64638 0.17571,-3.40504 -3.41719,-1.89593 -5.59319,-2.40291 -3.57963,0.0288 -7.32923,-0.37725 -10.81657,-0.25648 -3.976949,-0.78033 -6.11154,1.62761 -10.074474,1.15745 -3.799449,-0.47706 -7.525481,-0.55241 -11.366071,-0.58496 -6.37457,0.49641 -12.856275,-0.61586 -19.197017,0.15241 -2.795848,0.007 -4.357927,-1.31565 -5.40356,0.46496 -0.563505,-1.47672 -3.892135,-2.85155 -0.290182,-4.18833 2.635775,-1.4155 2.15857,-2.73163 0.05811,-1.39374 -2.530989,0.30044 -5.356584,-0.68508 -7.458956,-0.1298 -2.567997,-0.5155 -4.962752,-0.42925 -7.480129,-0.0918 -3.341428,-0.12045 -7.054348,-1.40689 -10.113017,0.18141 -2.339944,0.72342 -5.718573,0.90426 -8.419137,1.79308 -1.663079,0.78303 -9.481276,1.19864 -8.77115,1.98551 z m 15.437782,-4.9423 c 0.734288,-0.18828 -0.777719,-0.21183 0,0 z m 4.939146,-0.38031 c 0.509693,-0.24661 -0.514737,-0.16044 0,0 z m 9.66539,-1.26159 c 2.664104,8e-4 5.583952,0.58155 8.439528,0.25678 4.464962,-0.009 8.966167,-0.5091 13.417002,-0.12 2.006177,-0.48624 4.517081,-0.0591 6.890238,-0.21973 2.727418,-0.16043 4.572803,-0.0835 2.536477,-3.0521 -3.117156,-1.39655 -7.380289,0.81981 -11.025706,0.64907 -5.488538,0.46087 -11.031081,0.51791 -16.444563,1.56946 -1.147777,0.36876 -3.032662,0.29683 -3.812976,0.91652 z m 3.532256,-1.94668 c 1.286017,-0.39096 -1.423009,0.12978 0,0 z m 8.886091,7.89184 c 2.454087,-1.84611 3.710059,-0.88945 5.284888,1.03375 3.757722,-0.68054 7.292614,-0.48606 11.244265,-0.41998 5.541108,0.53916 11.166564,0.0478 16.715221,0.63129 3.874375,1.50292 5.342296,-1.83132 9.395496,-1.09771 5.857174,0.37485 11.502924,0.25031 17.360824,0.61101 3.21557,0.0937 5.09774,-3.15859 8.1429,-3.78451 2.27211,-1.87237 5.32266,-2.41318 7.47277,-4.51927 1.80949,-0.95767 5.41455,-2.85934 1.15595,-2.85761 -5.16271,-0.43288 -10.08176,-1.09095 -15.12182,-2.02371 -2.86894,-0.36259 -6.06119,0.39797 -8.81838,0.66257 -2.37959,0.68639 -6.11568,1.29264 -8.33261,0.73704 -1.15423,1.79038 0.8267,5.85644 -0.37499,7.92797 -2.116686,-2.01331 -0.0424,-7.3261 -1.610123,-10.43024 -0.749957,-3.73751 -0.834639,-7.8608 -0.583566,-11.79262 0.243498,-4.09344 -0.439378,-8.277 -0.433764,-12.45774 -0.02152,-2.75023 -0.384403,-8.21358 -1.052097,-9.45038 -0.04313,8.52806 -0.51035,17.08097 0.632214,25.55446 -0.105501,4.2546 0.7903,8.50464 0.768783,12.69085 0.721171,1.90372 -0.618965,8.2274 -1.156332,3.41392 0.657423,-3.41085 -0.322308,-6.12063 -4.45223,-4.82252 -5.160965,0.71632 -10.368024,-0.43344 -15.51106,0.40692 -2.316402,1.28586 1.262468,4.90564 3.121692,1.96018 1.999229,-0.62396 6.371068,0.86433 4.158178,3.29428 -2.443707,1.12577 -5.222661,1.16009 -7.582769,-0.18515 -1.501894,-0.2172 -3.2117,1.35361 -4.916154,0.71524 -2.664723,0.28157 -5.575836,0.43797 -8.235531,0.34934 -2.669463,-0.3787 -6.442408,2.0899 -7.271723,3.85233 z m 2.222672,-3.60983 c 0.260025,-0.18001 -0.266866,-0.0883 0,0 z m 0.561733,4.05647 c 0.500189,-0.32874 -0.427198,-0.0235 0,0 z m 0.288988,0.48155 c 0.766888,0.53672 -0.374458,-0.78673 0,0 z m 0.243866,17.50554 c 2.868921,1.98583 5.424088,4.79472 7.726281,7.58331 1.193571,2.15564 2.294088,3.95869 3.448561,6.03591 1.704027,3.48486 3.260248,7.09309 4.628267,10.72854 1.509339,3.29984 3.982753,5.88402 6.711362,8.20686 2.966906,2.75129 6.68118,4.54567 10.700927,5.2904 5.784693,-0.1622 11.559397,0.63133 17.342447,0.30646 4.23473,1.18192 8.39089,0.75382 12.69022,0.7802 3.37165,0.42179 7.19481,-0.22855 10.29833,-0.21872 3.36468,0.0443 6.67173,-1.26605 9.18727,-3.40282 2.62763,-2.01069 3.85371,-5.17561 6.17117,-7.4716 2.40906,-2.89628 2.63429,-6.58205 3.50512,-10.13835 0.74249,-4.12034 2.4585,-7.97218 3.10299,-12.10886 0.66613,-2.78364 1.31131,-5.97828 0.90997,-8.69333 -1.53739,0.027 -4.02605,0.72173 -6.04747,1.269 -3.04542,0.39826 -6.03865,1.31614 -8.91592,2.14152 -2.7119,1.48276 -5.96545,2.05577 -8.97815,2.83881 -6.90232,1.6955 -13.99843,2.53857 -21.12339,2.46275 -6.07742,0.13436 -12.121692,-0.64472 -18.187659,-0.31735 -3.188356,-0.49735 -6.675519,-0.54725 -9.634037,-0.86027 -6.260204,-0.68356 -12.7821,-1.27923 -18.870328,-3.24141 -1.49447,-0.4594 -2.691417,-0.40126 -3.97816,-1.12724 -0.124145,-0.0732 -1.581969,-0.52463 -0.687801,-0.0638 z m 5.279617,-27.87763 c -0.454752,-0.27732 -0.630186,0.23691 0,0 z m 2.155991,-0.26498 c 2.10226,-1.16279 8.250771,0.53435 7.533207,-2.36493 -2.233973,-0.15399 -5.223139,1.63246 -7.774083,2.18666 -1.223734,0.33272 0.03668,0.16467 0.240876,0.17827 z m 7.488582,-8.10553 c -0.02611,2.53221 1.118771,4.3848 1.061413,6.68859 3.105478,-0.6377 7.365299,-0.29417 10.912344,-0.1813 3.211623,-0.47487 8.289441,0.60294 10.272133,-1.13327 -0.734617,-10.10732 -1.699067,-20.16322 -1.262133,-30.32638 0.1931,-7.7539 -0.126177,-15.50379 0.0437,-23.25141 0.595032,-3.93949 -0.128759,-7.98283 0.176833,-11.97074 0.425343,-7.051854 0.171506,-14.133471 0.65572,-21.204236 -0.03318,-5.587536 1.012333,-11.223688 1.093132,-16.751716 0.553104,-8.980522 1.379049,-17.989186 1.449052,-27.007118 -0.174672,-4.052289 -2.635779,2.735919 -2.829673,3.806382 -2.73901,4.66971 -3.915929,10.1361 -5.400758,15.208094 -0.871976,4.409596 -2.891476,8.438327 -3.666406,12.863357 -0.962132,3.081887 -1.56108,6.312686 -2.676531,9.253279 -0.672489,5.582521 -2.360995,10.918922 -3.363933,16.459744 -1.042301,5.827544 -2.336547,11.567004 -2.89843,17.463404 -1.505069,7.72227 -1.993477,15.64144 -3.015723,23.36591 -0.447715,4.21238 -0.223409,8.47623 -0.439826,12.75504 -0.182541,4.65422 -0.211402,9.30362 -0.110855,13.96237 z m 22.129764,-40.06514 c 0.261649,2.84836 -0.492458,8.46379 0.573831,9.56847 0.834711,-4.0721 -0.09535,-8.32062 -0.01941,-12.47221 -0.699893,-1.90998 -0.735171,2.53572 -0.554436,2.90374 z m 0.162766,-14.5323 c 0.496416,0.5752 -0.171105,-1.77173 0,0 z m 0.155603,-6.89093 c 0.2741,-0.27155 -0.267225,-0.39895 0,0 z m 0,1.16788 c 0.223147,-0.51725 -0.258982,0.1305 0,0 z m 0.291974,-13.832022 c 0.271958,-0.96504 -0.271987,-0.96503 0,0 z m 0,1.496339 c 0.460927,-1.227441 -0.305162,-0.726819 0,0 z m 0.851724,26.541423 c 0.602989,7.0713 0.462438,14.00373 0.760772,21.07795 -0.147914,6.60927 0.746602,13.22913 0.326832,19.83016 0.31903,2.02468 0.2952,9.8021 1.39302,4.68746 0.12315,-2.53907 0.0939,-4.36809 0.22802,-7.56581 0.36387,-4.3996 0.0349,-8.8137 -0.79436,-13.16641 0.0741,-3.62358 0.74849,-7.48474 0.61622,-11.04776 -0.46275,-5.47181 -0.40982,-10.96282 0.25937,-16.44308 -0.197,-4.02891 -0.6598,-7.92825 -0.58815,-11.9325 -0.034,-4.03521 -0.36063,-7.965494 -0.80168,-11.93672 -0.14792,-4.138357 0.65464,-7.947887 0.42086,-12.038202 -0.25771,-4.29131 -0.35115,-8.553888 -0.32936,-12.823865 -0.42308,-1.821362 0.58737,-7.821841 -0.28033,-7.46542 0.0394,3.863306 -0.630488,7.276543 -0.587215,11.085716 -0.268152,8.401986 0.06981,16.779455 -0.317479,25.190957 -0.165348,7.139294 -0.327932,14.369454 -0.352232,21.465424 -0.267827,0.31032 -0.03634,0.76393 0.04562,1.0821 z m 1.498514,-62.195678 c 1.21144,-1.42263 -0.768736,-4.160791 -0.047,-0.43811 z m 0.30966,-20.111805 c 0.25073,-0.170339 -0.1391,-0.210233 0,0 z m 0.10734,133.686783 c 3.46451,0.92014 7.48047,0.0346 11.1043,-0.37375 5.67099,-0.74093 -4.00866,-1.52345 -5.7694,-1.90511 -2.40541,-0.41276 -6.453024,-1.63276 -5.3349,2.27886 z m 0.31885,-106.351191 c -0.0135,7.921961 0.70936,15.848073 0.33457,23.727964 0.13305,4.168935 -0.23973,8.388493 0.55612,12.485797 0.13601,3.06148 -0.007,6.34606 0.54633,9.43899 -0.31499,4.4335 -0.0896,8.91421 -0.58747,13.35192 0.0947,6.29825 -0.72282,12.74018 0.35841,18.93551 -0.0735,3.86337 0.31525,7.79582 0.76735,11.53098 0.19073,1.4841 1.12336,8.23909 0.0866,5.14651 0.0155,-4.83925 -2.49456,6.76598 1.56422,4.68643 5.52383,0.60694 10.87367,1.3569 16.21045,2.66182 2.84721,0.52158 5.95778,1.242 8.62695,1.40932 3.6544,1.10971 7.47408,1.87595 11.22768,2.69327 2.74606,0.85469 5.33275,0.71619 7.73368,1.71455 6.28028,2.02424 12.67244,3.75898 19.19497,4.84076 2.35385,0.58181 5.4793,2.38715 2.73919,-1.25838 -1.05201,-2.58325 -2.15563,-5.48635 -3.26001,-8.27519 -1.15442,-3.27522 -2.98476,-5.96474 -4.26709,-9.22328 -1.71653,-3.6664 -3.65548,-7.20471 -5.45333,-10.8121 -1.25704,-1.66563 -0.26556,-3.11686 -1.87347,-4.74204 -1.10747,-3.19436 -3.51193,-5.88521 -4.89049,-9.04236 -2.63434,-4.8602 -5.78415,-9.52893 -7.86856,-14.65039 -1.9087,-3.64546 -4.18691,-7.16617 -5.53781,-11.07395 -5.15419,-8.563684 -9.77843,-17.451979 -14.22194,-26.403951 -3.11926,-5.566664 -5.28295,-11.646526 -8.89012,-16.926531 -0.63886,-3.840087 -3.57348,-6.787369 -4.93411,-10.379811 -1.28163,-3.379324 -2.66743,-6.766416 -4.24064,-9.981007 -1.18261,-1.234615 -3.46711,-7.018622 -3.46456,-2.810879 -0.44427,5.485878 -0.43243,11.040735 -0.30807,16.49624 -0.15119,2.079838 -0.17512,4.321402 -0.14883,6.459808 z m 1.23313,101.606331 c 5.20746,1.37683 10.78407,1.75341 16.11182,2.8043 6.00254,0.1733 11.66807,2.28801 17.52749,2.88483 3.90528,0.39058 8.07751,1.40474 12.03805,1.44583 -4.02352,-1.7356 -8.54567,-1.66132 -12.68867,-3.05006 -2.3819,-1.19621 -5.40165,-0.37476 -7.4541,-1.6398 -5.37658,-0.97215 -10.9346,-1.78521 -16.35025,-2.93877 -2.89509,0.49393 -8.10624,-2.87539 -9.30021,0.42322 z m 0.46932,-9.1705 c 0.51272,-0.58718 -0.39708,-1.26616 0,0 z m 7.14999,11.54159 c 0.25876,-0.22396 -0.3597,-0.043 0,0 z m 43.12813,55.91204 c 2.75671,-2.19881 6.07823,-3.72336 8.38811,-6.40872 2.04818,-1.50769 3.19754,-3.91391 4.85354,-5.86808 1.68539,-3.08453 4.04657,-5.73817 4.90033,-9.21338 0.93456,-2.81104 2.00048,-5.74761 3.34177,-8.47312 0.70784,-2.61356 -5.33107,1.2684 -7.40887,1.13138 -2.46088,0.64155 -4.75146,1.90273 -7.33905,2.04376 -2.96868,2.07101 -1.13964,6.80813 -2.50651,9.93009 -0.66247,4.36371 -2.492,8.20768 -3.16144,12.59684 -0.4537,1.39117 -0.81803,2.82186 -1.06788,4.26123 z M 55.510011,200.78146 c 0.382993,0.17325 -0.385548,0.0632 0,0 z M 160.07569,137.78917 c 0.1391,0.21023 -0.25072,0.17035 0,0 z m 25.4436,39.24753 c 0.68238,-0.2245 0.0934,0.42591 0,0 z"
       id="path1551"
       inkscape:connector-curvature="0" />
    <text
       xml:space="preserve"
       style="font-style:normal;font-variant:normal;font-weight:normal;font-stretch:normal;font-size:10.58333302px;line-height:1.25;font-family:cmr10;-inkscape-font-specification:cmr10;letter-spacing:0px;word-spacing:0px;fill:#4c4c4c;fill-opacity:0.66666667;stroke:none;stroke-width:0.26458332"
       x="148.08687"
       y="76.02404"
       id="text881"><tspan
         sodipodi:role="line"
         id="tspan879"
         x="148.08687"
         y="76.02404"
         style="font-style:normal;font-variant:normal;font-weight:normal;font-stretch:normal;font-family:cmr10;-inkscape-font-specification:cmr10;fill:#4c4c4c;fill-opacity:0.66666667;stroke-width:0.26458332">Sail</tspan></text>
    <flowRoot
       xml:space="preserve"
       id="flowRoot885"
       style="font-style:normal;font-weight:normal;font-size:40px;line-height:1.25;font-family:sans-serif;letter-spacing:0px;word-spacing:0px;fill:#4b4b4b;fill-opacity:0.6627451;stroke:none"
       transform="matrix(0.26458333,0,0,0.26458333,11.154727,-87.600281)"><flowRegion
         id="flowRegion887"
         style="fill:#4b4b4b;fill-opacity:0.6627451"><rect
           id="rect889"
           width="110"
           height="80"
           x="110"
           y="492.51968"
           style="fill:#4b4b4b;fill-opacity:0.6627451" /></flowRegion><flowPara
         id="flowPara891"
         style="font-style:normal;font-variant:normal;font-weight:normal;font-stretch:normal;font-family:cmr10;-inkscape-font-specification:cmr10;fill:#4b4b4b;fill-opacity:0.6627451">Mast</flowPara></flowRoot>    <flowRoot
       xml:space="preserve"
       id="flowRoot912"
       style="font-style:normal;font-variant:normal;font-weight:normal;font-stretch:normal;font-size:40px;line-height:1.25;font-family:cmr10;-inkscape-font-specification:cmr10;text-align:center;text-anchor:middle;opacity:1;fill:#4b4b4b;fill-opacity:0.6627451;stroke:none;stroke-width:1.51181102;stroke-linecap:round;stroke-linejoin:round;stroke-miterlimit:4;stroke-dasharray:none;stroke-dashoffset:0;stroke-opacity:0.43529412"
       transform="matrix(0.26458333,0,0,0.26458333,-27.123685,-24.065649)"><flowRegion
         id="flowRegion914"
         style="font-size:40px;stroke:none"><rect
           id="rect916"
           width="200"
           height="180"
           x="90"
           y="842.51971"
           style="font-size:40px;stroke:none" /></flowRegion><flowPara
         id="flowPara918"
         style="font-size:40px;stroke:none">Hull</flowPara></flowRoot>    <flowRoot
       xml:space="preserve"
       id="flowRoot920"
       style="font-style:normal;font-variant:normal;font-weight:normal;font-stretch:normal;font-size:40px;line-height:1.25;font-family:cmr10;-inkscape-font-specification:cmr10;text-align:center;text-anchor:middle;opacity:1;fill:#4b4b4b;fill-opacity:0.6627451;stroke:none;stroke-width:1.51181102;stroke-linecap:round;stroke-linejoin:round;stroke-miterlimit:4;stroke-dasharray:none;stroke-dashoffset:0;stroke-opacity:0.43529412"
       transform="matrix(0.26458333,0,0,0.26458333,-93.336435,-21.459223)"><flowRegion
         id="flowRegion922"><rect
           id="rect924"
           width="200"
           height="110"
           x="480"
           y="962.51971" /></flowRegion><flowPara
         id="flowPara926">Keel</flowPara></flowRoot>    <flowRoot
       xml:space="preserve"
       id="flowRoot944"
       style="font-style:normal;font-variant:normal;font-weight:normal;font-stretch:normal;font-size:40px;line-height:1.25;font-family:cmr10;-inkscape-font-specification:cmr10;text-align:start;text-anchor:start;opacity:1;fill:#4b4b4b;fill-opacity:0.6627451;stroke:none;stroke-width:1.51181102;stroke-linecap:round;stroke-linejoin:round;stroke-miterlimit:4;stroke-dasharray:none;stroke-dashoffset:0;stroke-opacity:0.43529412"
       transform="matrix(0.26458333,0,0,0.26458333,-12.105432,55.331701)"><flowRegion
         id="flowRegion946"><rect
           id="rect948"
           width="180"
           height="130"
           x="700"
           y="592.51971" /></flowRegion><flowPara
         id="flowPara950">Rudder</flowPara></flowRoot>    <flowRoot
       xml:space="preserve"
       id="flowRoot936"
       style="font-style:normal;font-variant:normal;font-weight:normal;font-stretch:normal;font-size:40px;line-height:1.25;font-family:cmr10;-inkscape-font-specification:cmr10;text-align:start;text-anchor:start;opacity:1;fill:#4b4b4b;fill-opacity:0.6627451;stroke:none;stroke-width:1.51181102;stroke-linecap:round;stroke-linejoin:round;stroke-miterlimit:4;stroke-dasharray:none;stroke-dashoffset:0;stroke-opacity:0.43529412"
       transform="matrix(0.26458333,0,0,0.26458333,-28.807149,-132.60487)"><flowRegion
         id="flowRegion938"
         style="text-align:start;text-anchor:start"><rect
           id="rect940"
           width="220.00002"
           height="119.99998"
           x="730"
           y="952.51971"
           style="text-align:start;text-anchor:start" /></flowRegion><flowPara
         id="flowPara942">Sheet</flowPara></flowRoot>    <path
       style="opacity:1;fill:none;fill-opacity:0.6627451;stroke:#4c4c4c;stroke-width:0.40000001;stroke-linecap:round;stroke-linejoin:round;stroke-miterlimit:4;stroke-dasharray:none;stroke-dashoffset:0;stroke-opacity:0.43529412"
       d="m 164.04167,207.04167 7.9375,15.875 h 7.9375"
       id="path3588"
       inkscape:connector-curvature="0"
       sodipodi:nodetypes="ccc" />
    <path
       style="opacity:1;fill:none;fill-opacity:0.6627451;stroke:#4c4c4c;stroke-width:0.40000001;stroke-linecap:round;stroke-linejoin:round;stroke-miterlimit:4;stroke-dasharray:none;stroke-dashoffset:0;stroke-opacity:0.43529412"
       d="m 125.67708,180.58333 35.71875,-50.27083 h 7.9375"
       id="path3590"
       inkscape:connector-curvature="0" />
    <path
       style="opacity:1;fill:none;fill-opacity:0.6627451;stroke:#4c4c4c;stroke-width:0.40000001;stroke-linecap:round;stroke-linejoin:round;stroke-miterlimit:4;stroke-dasharray:none;stroke-dashoffset:0;stroke-opacity:0.43529412"
       d="m 119.0625,95.916667 21.16666,-18.520833 h 13.22917"
       id="path3592"
       inkscape:connector-curvature="0" />
    <path
       style="opacity:1;fill:none;fill-opacity:0.6627451;stroke:#4c4c4c;stroke-width:0.40000001;stroke-linecap:round;stroke-linejoin:round;stroke-miterlimit:4;stroke-dasharray:none;stroke-dashoffset:0;stroke-opacity:0.43529412"
       d="M 140.22916,77.395834 74.083332,95.916667"
       id="path3594"
       inkscape:connector-curvature="0" />
    <path
       style="opacity:1;fill:none;fill-opacity:0.6627451;stroke:#4c4c4c;stroke-width:0.40000001;stroke-linecap:round;stroke-linejoin:round;stroke-miterlimit:4;stroke-dasharray:none;stroke-dashoffset:0;stroke-opacity:0.43529412"
       d="M 98.689582,77.395834 68.791666,53.583334 H 58.208333"
       id="path3596"
       inkscape:connector-curvature="0" />
    <path
       style="opacity:1;fill:none;fill-opacity:0.6627451;stroke:#4c4c4c;stroke-width:0.40000001;stroke-linecap:round;stroke-linejoin:round;stroke-miterlimit:4;stroke-dasharray:none;stroke-dashoffset:0;stroke-opacity:0.43529412"
       d="m 47.624999,193.8125 -10.583333,15.875 h -7.9375"
       id="path3598"
       inkscape:connector-curvature="0" />
    <path
       style="opacity:1;fill:none;fill-opacity:0.6627451;stroke:#4c4c4c;stroke-width:0.40000001;stroke-linecap:round;stroke-linejoin:round;stroke-miterlimit:4;stroke-dasharray:none;stroke-dashoffset:0;stroke-opacity:0.43529412"
       d="m 87.312499,232.17708 -13.229167,11.90625 h -7.9375"
       id="path3600"
       inkscape:connector-curvature="0" />
  </g>
</svg>
