<?xml version="1.0" encoding="UTF-8" standalone="no"?>
<!-- Created with Inkscape (http://www.inkscape.org/) -->

<svg
   xmlns:dc="http://purl.org/dc/elements/1.1/"
   xmlns:cc="http://creativecommons.org/ns#"
   xmlns:rdf="http://www.w3.org/1999/02/22-rdf-syntax-ns#"
   xmlns:svg="http://www.w3.org/2000/svg"
   xmlns="http://www.w3.org/2000/svg"
   xmlns:sodipodi="http://sodipodi.sourceforge.net/DTD/sodipodi-0.dtd"
   xmlns:inkscape="http://www.inkscape.org/namespaces/inkscape"
   width="210mm"
   height="297mm"
   viewBox="0 0 210 297"
   version="1.1"
   id="svg976"
   inkscape:version="0.92.3 (2405546, 2018-03-11)"
   sodipodi:docname="boat_stranger.svg">
  <defs
     id="defs970" />
  <sodipodi:namedview
     id="base"
     pagecolor="#ffffff"
     bordercolor="#666666"
     borderopacity="1.0"
     inkscape:pageopacity="0.0"
     inkscape:pageshadow="2"
     inkscape:zoom="0.49497475"
     inkscape:cx="-55.462479"
     inkscape:cy="626.87858"
     inkscape:document-units="mm"
     inkscape:current-layer="layer1"
     showgrid="false"
     inkscape:window-width="1916"
     inkscape:window-height="1041"
     inkscape:window-x="0"
     inkscape:window-y="290"
     inkscape:window-maximized="0" />
  <metadata
     id="metadata973">
    <rdf:RDF>
      <cc:Work
         rdf:about="">
        <dc:format>image/svg+xml</dc:format>
        <dc:type
           rdf:resource="http://purl.org/dc/dcmitype/StillImage" />
        <dc:title></dc:title>
      </cc:Work>
    </rdf:RDF>
  </metadata>
  <g
     inkscape:label="Layer 1"
     inkscape:groupmode="layer"
     id="layer1">
    <path
       style="fill:#000000;stroke-width:0.08168743"
       d="m 6.2319354,178.74755 c 2.0685198,-3.42153 3.9085266,-7.10456 6.0289066,-10.49497 3.253732,-5.91795 7.389166,-11.51603 11.534738,-16.87567 5.213433,-5.45973 8.444039,-12.21693 12.368719,-18.52082 2.189144,-3.65644 4.334995,-7.44037 6.924823,-10.83139 3.185194,-5.28091 6.21172,-10.60617 9.2371,-15.97423 2.80944,-0.85465 3.428716,-4.80159 5.247112,-7.045431 2.634942,-3.79707 5.536487,-7.52713 8.23001,-11.31253 2.735184,-4.70945 5.614243,-9.32571 8.530345,-13.91364 3.283036,-4.4975 5.247707,-9.757313 8.587095,-14.224631 2.414105,-3.945875 4.422935,-8.248626 7.633861,-11.517925 2.517239,-3.882578 4.388208,-8.181153 7.265311,-11.865107 3.344204,-7.077837 8.506584,-13.117891 11.986454,-20.115528 1.88834,0.881982 1.44287,-5.178898 2.96028,-1.689654 1.35302,1.787947 2.93784,3.823862 4.05015,5.856575 3.74343,5.545452 4.95287,12.392556 8.68715,17.940408 1.95354,2.636251 2.25387,5.885455 4.09719,8.488721 4.52746,7.348543 7.52157,15.441821 11.84467,22.894781 3.2268,6.99594 7.21868,13.5566 10.71979,20.39548 1.40388,2.73559 3.76242,5.11349 4.52407,8.09151 -1.23466,0.61198 2.21601,4.701341 2.84994,6.504561 3.15748,5.65789 6.29165,11.42307 9.46181,17.13997 2.29946,4.4353 4.88136,8.79356 7.21477,13.21675 1.74126,1.93044 2.46864,4.68113 3.18048,6.59924 1.45702,3.16159 2.72641,6.49877 4.42142,9.52374 1.45113,2.36997 2.40265,5.3533 3.45441,8.11589 1.6163,2.60449 0.8724,6.91768 5.34513,6.15621 3.49516,0.11208 7.224,0.97788 10.54306,0.87517 2.81201,-1.76807 1.15799,4.74818 2.21133,6.45595 -0.0333,4.17616 3.66309,7.61018 1.91388,11.9057 -0.94494,4.42087 -5.49928,2.93919 -8.63739,4.23659 -2.34904,0.94284 -3.1759,4.24056 -4.06481,6.53572 -1.67433,3.52214 -1.74808,7.64799 -4.04372,10.88433 -1.91292,2.74911 -3.09529,6.12709 -5.55475,8.65868 -2.58601,4.12466 -6.52928,6.98726 -10.596,9.49031 -2.70446,1.02616 -3.30942,3.93765 -5.13452,5.70355 -2.4533,2.84351 -4.67687,6.186 -7.19066,9.15098 -1.66255,2.52399 -4.99459,3.3593 -7.66525,4.61335 -3.44275,1.11378 -7.00027,0.35911 -10.5519,0.84571 -3.61398,0.43246 -7.04572,-0.42324 -10.60858,0.15989 -4.25677,-0.32602 -8.67069,-0.90412 -12.98362,-1.13373 -4.0863,0.23136 -8.15373,-0.38636 -12.28733,-0.39181 -3.62392,0.31617 -7.18925,-0.67491 -10.462364,-2.25718 -4.54722,-2.28167 -8.370432,-5.844 -11.524942,-9.84445 -3.065913,-3.89483 -3.817295,-8.87647 -6.280997,-13.06888 -1.78534,-4.03946 -3.82654,-7.98299 -6.494087,-11.46361 -2.205199,-2.13014 -4.387019,-4.27929 -6.817124,-6.14542 -2.351465,-1.00673 -3.554499,-2.41061 -4.78985,-2.41301 -7.901824,-0.8401 -15.790399,-2.58946 -23.527675,-4.52639 -4.630027,-0.91348 -9.064334,-2.54958 -13.233374,-4.70788 -3.248798,-1.8552 -7.03881,-2.58699 -10.147069,-4.6031 -2.253164,-1.87351 -5.7291225,-2.86236 -7.074608,-5.18675 -0.4248735,0.0793 -1.6606838,0.88234 -1.3833846,-0.31603 z m 2.9121068,-0.58361 c 4.6033298,-0.40061 9.0083158,-1.17635 13.4874938,-2.15864 1.857387,-1.11465 10.711697,-1.68692 9.070206,-2.26731 -4.606188,0.52404 -9.241537,0.23827 -13.848916,-0.29566 -4.123538,-1.03915 -8.0969577,-0.94005 -9.1431637,3.90951 -0.1822896,0.29012 -0.1750922,1.06937 0.4343799,0.8121 z m 4.2277378,-7.06715 c 8.153473,1.36011 16.48707,0.45698 24.626283,1.18196 3.551018,0.20992 6.795793,-1.62026 10.31739,-1.70271 3.431295,-0.78811 -4.869192,0.0989 -6.278029,0.22569 -9.089201,0.6618 -18.375051,0.6592 -27.30368,-1.51851 -0.730629,-1.99022 -3.685352,2.20539 -1.361964,1.81357 z m -0.726525,10.02149 c 2.85965,2.33577 6.262381,3.42154 9.560614,4.93623 5.723098,2.82983 11.655344,5.44732 17.992243,6.47624 4.438123,1.2573 8.963038,1.85873 13.462745,2.97674 5.505064,1.02444 11.249565,0.98216 16.534305,3.02921 5.852849,1.57705 11.69189,3.21695 17.786322,3.65071 6.677612,0.66304 13.363966,1.53042 20.062896,1.67011 6.36321,-0.47465 12.59217,0.72613 19.02236,0.22645 8.4798,-0.0307 16.9393,-1.40615 25.03938,-3.7538 0.33682,-0.46043 -2.31523,-1.79931 1.00981,-1.6219 3.70844,-1.42245 7.86272,-1.62204 11.77428,-2.53431 3.64931,-0.36117 6.86131,-1.48533 10.46531,-1.89555 4.21907,-0.887 8.63496,-1.91016 12.64794,-3.61849 4.69763,-0.51369 8.74439,-3.14653 13.38442,-3.71251 3.19755,-0.55923 6.08139,-2.33515 4.87701,-6.14561 -2.60644,-2.84946 -6.79109,0.40323 -10.24753,0.29823 -7.3997,1.55155 -14.67928,2.72318 -22.10044,3.8851 -3.5175,1.00216 -7.21991,1.34384 -10.76257,2.39608 -7.21198,1.55225 -14.61897,1.78692 -21.87625,2.57732 -4.43042,-0.2275 -9.39055,0.81907 -14.01523,1.14172 -10.15645,0.6645 -20.31265,1.51615 -30.502631,0.88692 -5.08888,0.003 -10.22348,-0.59408 -15.283395,-0.68474 -2.120309,-0.53701 -4.889531,-0.50121 -7.014629,-0.68667 -4.681681,0.2911 -9.194908,-1.16865 -13.833602,-1.57557 -5.579988,-1.08702 -11.326797,-2.02671 -16.943737,-2.25751 -4.041814,-1.40547 -8.471783,-0.95668 -12.559225,-2.25484 -4.021971,-0.63931 -8.002201,-0.58514 -11.802449,-2.19324 -1.761736,-0.0326 -5.720311,-1.52212 -6.677947,-1.2165 z m 2.348507,-14.30994 c 4.560497,2.40004 10.485988,2.04914 15.648182,2.49925 11.939038,-0.0666 23.827027,-1.65293 35.764369,-2.11851 5.599353,-0.29642 10.95043,-1.94001 16.171133,-3.7237 1.180197,-3.1262 -0.315208,-8.02812 0.261885,-11.80862 0.187773,-7.97614 0.270309,-15.94695 0.31684,-23.91281 1.149694,-5.45925 1.298449,-11.01622 2.149216,-16.52247 1.538417,-11.251651 3.270002,-22.449211 5.832358,-33.515021 1.384041,-5.50446 2.39371,-11.128509 3.252142,-16.72273 0.288547,-3.62659 2.77449,-4.987372 2.987427,-8.814372 1.384215,-5.292127 3.396046,-10.480595 4.458286,-15.891497 0.76325,-2.496388 3.77135,-11.125811 0.23607,-4.886384 -1.73473,2.982466 -3.308536,6.09537 -5.341565,8.813877 -3.0939,4.685902 -4.729379,10.302147 -8.733576,14.357697 -3.035997,3.056118 -4.626474,7.313241 -7.162727,10.78736 -2.195034,5.180789 -5.973285,9.408309 -8.591866,14.360159 -2.930055,4.25844 -4.993281,8.97405 -8.375105,12.89784 -4.134902,5.08532 -6.991837,10.998261 -10.924553,16.229251 -2.093674,1.96233 -3.312727,5.30707 -5.273177,7.79914 -2.102081,3.7337 -4.054585,7.54598 -6.635105,10.98221 -1.534206,2.80077 -3.516212,5.79165 -5.185175,8.7022 -3.247328,4.73556 -5.616174,10.11985 -9.549395,14.35186 -4.021321,4.57651 -7.520342,9.62392 -10.732233,14.78888 -0.139998,0.45492 -0.759707,0.83378 -0.573431,1.34639 z M 40.69772,148.6548 c 0.571365,-0.33607 -0.0892,0.48264 0,0 z m -24.492184,30.7929 c 4.74846,0.33467 9.403966,1.62554 14.034868,2.79818 4.13409,1.10308 8.4467,1.10785 12.487224,2.35637 4.314693,1.13492 8.631542,1.78275 13.028076,2.52635 7.273863,1.30894 14.562725,2.79195 21.977055,2.68115 11.789236,1.13235 23.615521,1.65772 35.458061,1.28909 7.29168,-0.89972 14.70724,-0.79797 21.97461,-1.94066 11.65852,-0.64205 23.44779,-1.17615 34.76563,-4.24157 6.60351,-1.38481 13.31204,-2.36396 19.9787,-3.54086 4.33373,-0.91714 8.74395,-1.44829 12.99715,-2.65872 3.28555,-1.01943 -0.0833,-5.37067 0.13251,-8.00205 0.35862,-4.78523 -5.04498,-3.71594 -8.25162,-4.18956 -2.77957,-0.90224 -6.02327,-0.75258 -3.38101,2.48822 0.52223,2.99273 1.74616,4.65009 2.67498,6.53547 -2.18423,0.85921 -5.53503,-1.5835 -8.09529,-2.08202 -3.70009,-1.18157 -7.59616,-1.15786 -11.36597,-2.08476 -2.9882,-0.94343 -8.48779,0.22846 -9.92714,-1.68135 -3.17134,-0.43849 -6.84783,-1.80149 -9.78404,-1.40087 -2.6565,0.58323 -5.72051,2.18563 -8.21911,4.1074 -2.95354,1.67911 -5.74681,3.55728 -8.92259,4.75498 -4.28646,2.664 3.23891,3.16269 5.99345,2.45124 5.47398,-0.47074 10.99769,0.32729 16.41629,-0.67698 -1.57681,1.77428 -6.90675,1.90367 -9.93389,1.47857 -5.33174,0.0204 -10.58943,0.60901 -15.86857,0.89775 0.87419,1.39043 2.20934,3.3639 -0.7448,1.84249 0.19663,-3.81066 -3.82427,-2.12177 -6.25949,-2.68915 -4.00605,0.0322 -8.20232,-0.42219 -12.10509,-0.28703 -4.45069,-0.87329 -6.83957,1.8215 -11.27459,1.29532 -4.252059,-0.53387 -8.421956,-0.61821 -12.720057,-0.65463 -7.133941,0.55554 -14.387781,-0.68923 -21.483864,0.17056 -3.128904,0.008 -4.877066,-1.47237 -6.047261,0.52036 -0.630631,-1.65264 -4.355785,-3.19125 -0.32475,-4.68727 2.949762,-1.58413 2.41571,-3.05704 0.06503,-1.55977 -2.832493,0.33623 -5.994687,-0.76669 -8.347505,-0.14527 -2.87391,-0.57691 -5.55394,-0.48039 -8.371199,-0.10272 -3.739477,-0.1348 -7.894699,-1.57449 -11.317733,0.20302 -2.61869,0.80959 -6.399799,1.01197 -9.422068,2.00668 -1.861193,0.8763 -10.610734,1.34143 -9.816014,2.22204 z m 17.276811,-5.53106 c 0.82176,-0.21071 -0.870365,-0.23706 0,0 z m 5.527523,-0.42561 c 0.570409,-0.27599 -0.576056,-0.17956 0,0 z m 10.816781,-1.41188 c 2.981465,9e-4 6.24914,0.65083 9.444887,0.28737 4.996852,-0.0101 10.034264,-0.56975 15.015305,-0.13429 2.245163,-0.54417 5.05518,-0.0661 7.711039,-0.24591 3.052321,-0.17954 5.117539,-0.0934 2.838635,-3.41568 -3.488487,-1.56292 -8.259468,0.91747 -12.339145,0.72638 -6.142361,0.51578 -12.34516,0.57961 -18.403524,1.75643 -1.284506,0.41269 -3.393928,0.33219 -4.267197,1.0257 z m 3.953036,-2.17857 c 1.439214,-0.43754 -1.592525,0.14523 0,0 z m 9.944648,8.83195 c 2.74643,-2.06603 4.152021,-0.9954 5.914451,1.1569 4.205361,-0.76162 8.161347,-0.54397 12.58374,-0.47002 6.201194,0.60339 12.496783,0.0535 18.706424,0.7065 4.33591,1.68195 5.9787,-2.04948 10.51474,-1.22848 6.5549,0.41951 12.8732,0.28013 19.42893,0.6838 3.59861,0.10492 5.705,-3.53486 9.11292,-4.23534 2.54277,-2.09542 5.95672,-2.70066 8.36296,-5.05763 2.02505,-1.07175 6.05957,-3.19996 1.29366,-3.19802 -5.77773,-0.48445 -11.28276,-1.22091 -16.92321,-2.26479 -3.21071,-0.40578 -6.78323,0.44539 -9.86887,0.7415 -2.66306,0.76816 -6.84421,1.44662 -9.32524,0.82484 -1.29172,2.00366 0.92518,6.55409 -0.41965,8.87239 -2.36883,-2.25315 -0.0474,-8.19883 -1.80193,-11.67275 -0.83929,-4.18273 -0.93406,-8.79721 -0.65308,-13.19741 0.27251,-4.58107 -0.49172,-9.263 -0.48544,-13.94177 -0.0241,-3.07786 -0.4302,-9.19203 -1.17743,-10.57616 -0.0483,9.54397 -0.57114,19.11574 0.70753,28.59864 -0.11807,4.76143 0.88445,9.51775 0.86037,14.20265 0.80708,2.13051 -0.69271,9.20749 -1.29409,3.8206 0.73574,-3.81716 -0.3607,-6.84975 -4.9826,-5.397 -5.775765,0.80166 -11.603117,-0.48507 -17.358818,0.45539 -2.592344,1.43904 1.41286,5.49002 3.493565,2.19369 2.237387,-0.69829 7.130021,0.96729 4.653521,3.68672 -2.734814,1.25988 -5.844812,1.29828 -8.486068,-0.20721 -1.680806,-0.24308 -3.594293,1.51486 -5.501791,0.80044 -2.982159,0.31511 -6.240058,0.49014 -9.21659,0.39095 -2.987463,-0.4238 -7.209861,2.33887 -8.137968,4.31125 z m 2.487449,-4.03986 c 0.291,-0.20145 -0.298657,-0.0988 0,0 z m 0.628648,4.5397 c 0.559775,-0.36789 -0.478088,-0.0263 0,0 z m 0.323415,0.53891 c 0.858243,0.60067 -0.419065,-0.88044 0,0 z m 0.272916,19.5909 c 3.210682,2.2224 6.070233,5.36589 8.646676,8.48667 1.335754,2.41244 2.56737,4.43028 3.859371,6.75494 1.907019,3.89999 3.648625,7.93805 5.17961,12.00658 1.68914,3.69294 4.457199,6.58496 7.510854,9.1845 3.320339,3.07905 7.477076,5.08718 11.975676,5.92063 6.4738,-0.18153 12.93641,0.70653 19.40837,0.34296 4.73918,1.32272 9.39045,0.84362 14.20194,0.87314 3.7733,0.47204 8.05189,-0.25578 11.52512,-0.24477 3.7655,0.0495 7.46649,-1.41688 10.2817,-3.80818 2.94065,-2.25022 4.31279,-5.79216 6.90631,-8.36166 2.69605,-3.2413 2.9481,-7.36614 3.92267,-11.34608 0.83094,-4.61117 2.75137,-8.92187 3.47263,-13.55133 0.74549,-3.11525 1.46753,-6.69045 1.01838,-9.72893 -1.72053,0.0302 -4.50566,0.80771 -6.76788,1.42017 -3.4082,0.44571 -6.75801,1.47293 -9.97804,2.39664 -3.03495,1.65938 -6.67607,2.30065 -10.04767,3.17698 -7.72455,1.89747 -15.66599,2.84097 -23.63971,2.75612 -6.80139,0.15037 -13.56568,-0.72151 -20.35426,-0.35515 -3.56817,-0.5566 -7.470743,-0.61245 -10.781693,-0.96276 -7.005952,-0.76499 -14.304771,-1.43161 -21.11826,-3.62753 -1.672499,-0.51414 -3.012032,-0.44906 -4.452058,-1.26153 -0.138934,-0.0819 -1.770422,-0.58712 -0.769736,-0.0714 z m 5.908552,-31.19855 c -0.508924,-0.31036 -0.705257,0.26513 0,0 z m 2.412824,-0.29656 c 2.352692,-1.30129 9.233645,0.59801 8.430601,-2.64664 -2.500095,-0.17234 -5.845346,1.82692 -8.700171,2.44714 -1.369512,0.37236 0.04104,0.18428 0.26957,0.1995 z m 8.380661,-9.0711 c -0.02922,2.83387 1.252045,4.90714 1.187854,7.48538 3.475418,-0.71367 8.242691,-0.32922 12.212278,-0.2029 3.594208,-0.53144 9.276918,0.67476 11.495798,-1.26827 -0.82212,-11.31136 -1.90146,-22.56517 -1.41248,-33.93902 0.2161,-8.67758 -0.14121,-17.35068 0.0489,-26.02124 0.66591,-4.40878 -0.1441,-8.933781 0.1979,-13.396751 0.47601,-7.8919 0.19193,-15.81712 0.73383,-23.73019 -0.0371,-6.253153 1.13293,-12.560712 1.22335,-18.747267 0.619,-10.050328 1.54334,-20.132151 1.62168,-30.224346 -0.19548,-4.535018 -2.94977,3.061836 -3.16677,4.259819 -3.06529,5.225989 -4.38241,11.343564 -6.04412,17.019761 -0.97585,4.93489 -3.235923,9.443544 -4.103167,14.395705 -1.076746,3.449018 -1.747044,7.064686 -2.995373,10.355578 -0.7526,6.24754 -2.642249,12.21964 -3.764662,18.42051 -1.166466,6.52175 -2.614889,12.94492 -3.243707,19.543731 -1.68436,8.64219 -2.230949,17.50473 -3.37497,26.14938 -0.50105,4.71418 -0.250024,9.48596 -0.492221,14.27449 -0.204287,5.20865 -0.236586,10.41191 -0.12406,15.62563 z m 24.76597,-44.8379 c 0.29282,3.18767 -0.55112,9.47203 0.64219,10.70831 0.93415,-4.55719 -0.10666,-9.31181 -0.0217,-13.95796 -0.78327,-2.13751 -0.82275,2.83779 -0.62049,3.24965 z m 0.18216,-16.263461 c 0.55555,0.64372 -0.19149,-1.98279 0,0 z m 0.17414,-7.71181 c 0.30675,-0.30391 -0.29906,-0.44648 0,0 z m 0,1.307 c 0.24973,-0.57887 -0.28983,0.14604 0,0 z m 0.32675,-15.47976 c 0.30436,-1.08 -0.30438,-1.07999 0,0 z m 0,1.67459 c 0.51584,-1.37366 -0.34151,-0.8134 0,0 z m 0.9532,29.703171 c 0.67482,7.91367 0.51752,15.67193 0.85139,23.58886 -0.16553,7.3966 0.83554,14.80505 0.36577,22.19243 0.35703,2.26588 0.33036,10.96977 1.55895,5.24586 0.13782,-2.84154 0.1051,-4.88844 0.25519,-8.46709 0.40721,-4.9237 0.0391,-9.86363 -0.88899,-14.73486 0.0829,-4.05524 0.83765,-8.37636 0.68962,-12.36383 -0.51787,-6.12364 -0.45864,-12.26877 0.29027,-18.40186 -0.22047,-4.508861 -0.7384,-8.872711 -0.65821,-13.353961 -0.0381,-4.51591 -0.40359,-8.91438 -0.89717,-13.35868 -0.16555,-4.63134 0.73261,-8.89468 0.47099,-13.472255 -0.28841,-4.802513 -0.39298,-9.572871 -0.36859,-14.35151 -0.47347,-2.038332 0.65733,-8.753619 -0.31372,-8.354739 0.0441,4.323523 -0.7056,8.143362 -0.65717,12.406303 -0.3001,9.402875 0.0781,18.778311 -0.3553,28.191831 -0.18505,7.98976 -0.367,16.08122 -0.39419,24.022491 -0.29973,0.34729 -0.0407,0.85493 0.0511,1.21101 z m 1.67702,-69.604744 c 1.35574,-1.592101 -0.86031,-4.656445 -0.0525,-0.4903 z m 0.34655,-22.507626 c 0.28058,-0.190632 -0.15567,-0.235278 0,0 z m 0.12011,149.61224 c 3.87722,1.02975 8.37159,0.0387 12.4271,-0.41828 6.34655,-0.82919 -4.48619,-1.70493 -6.45668,-2.13205 -2.69195,-0.46193 -7.22173,-1.82727 -5.97042,2.55033 z m 0.35684,-119.020293 c -0.0151,8.865666 0.79386,17.735977 0.37443,26.554562 0.1489,4.66556 -0.26829,9.38777 0.62236,13.97317 0.15221,3.42617 -0.007,7.10202 0.61141,10.5634 -0.35252,4.961651 -0.10032,9.976121 -0.65745,14.942471 0.1059,7.04854 -0.80892,14.25786 0.40111,21.1912 -0.0823,4.3236 0.3528,8.72451 0.85876,12.90462 0.21345,1.66089 1.25718,9.22057 0.0969,5.75959 0.0173,-5.41572 -2.79172,7.57198 1.75056,5.24469 6.18185,0.67925 12.16899,1.51855 18.14151,2.97892 3.1864,0.58371 6.66751,1.38995 9.65464,1.5772 4.08974,1.24191 8.36444,2.09942 12.56519,3.01411 3.07318,0.95651 5.96801,0.80151 8.65495,1.91879 7.02843,2.26538 14.18204,4.20677 21.48157,5.41742 2.63425,0.65113 6.13203,2.67152 3.0655,-1.40828 -1.17732,-2.89098 -2.41242,-6.13992 -3.64835,-9.26098 -1.29195,-3.66538 -3.34033,-6.67528 -4.77541,-10.322 -1.92102,-4.10316 -4.09094,-8.06297 -6.10297,-12.1001 -1.40678,-1.86404 -0.29719,-3.48815 -2.09665,-5.30692 -1.23939,-3.5749 -3.93028,-6.5863 -5.47306,-10.11954 -2.94816,-5.43917 -6.47319,-10.66406 -8.80591,-16.39562 -2.13607,-4.07973 -4.68567,-8.019841 -6.1975,-12.393141 -5.76818,-9.58382 -10.94328,-19.53094 -15.91613,-29.549316 -3.49085,-6.229794 -5.91228,-13.033921 -9.94916,-18.942907 -0.71495,-4.297538 -3.99917,-7.595916 -5.52189,-11.616308 -1.43429,-3.781886 -2.98518,-7.572466 -4.74579,-11.169996 -1.3235,-1.381689 -3.88014,-7.854717 -3.87729,-3.145725 -0.49719,6.139384 -0.48394,12.355965 -0.34477,18.461356 -0.16919,2.3276 -0.19598,4.836191 -0.16655,7.229334 z m 1.38002,113.710203 c 5.82781,1.54084 12.06873,1.96228 18.03114,3.13835 6.7176,0.19395 13.05803,2.56057 19.61546,3.22849 4.3705,0.43711 9.03974,1.57208 13.47209,1.61807 -4.50282,-1.94236 -9.56368,-1.85923 -14.20021,-3.4134 -2.66565,-1.33871 -6.04512,-0.4194 -8.34207,-1.83514 -6.01707,-1.08796 -12.23719,-1.99787 -18.29798,-3.28885 -3.23996,0.55277 -9.0719,-3.21793 -10.4081,0.47363 z m 0.52523,-10.26295 c 0.5738,-0.65713 -0.44438,-1.41699 0,0 z m 8.00174,12.91649 c 0.28958,-0.25063 -0.40255,-0.0482 0,0 z m 48.26577,62.57257 c 3.08511,-2.46075 6.8023,-4.16691 9.38735,-7.17216 2.29217,-1.68729 3.57844,-4.38015 5.43171,-6.56712 1.88617,-3.45197 4.52862,-6.42173 5.48409,-10.31092 1.04588,-3.14591 2.23879,-6.4323 3.73985,-9.48249 0.79217,-2.9249 -5.96613,1.41951 -8.29144,1.26616 -2.75404,0.71798 -5.31748,2.12939 -8.21332,2.28723 -3.32233,2.31772 -1.2754,7.61914 -2.8051,11.113 -0.74139,4.88354 -2.78886,9.18543 -3.53805,14.09745 -0.50775,1.5569 -0.91548,3.15801 -1.19509,4.76885 z M 61.759817,198.13696 c 0.428617,0.19388 -0.431476,0.0707 0,0 z M 178.78189,127.64071 c 0.15567,0.23527 -0.28058,0.19064 0,0 z m 28.47458,43.92289 c 0.76366,-0.25123 0.10459,0.47665 0,0 z"
       id="path1551"
       inkscape:connector-curvature="0" />
  </g>
</svg>
